<svg xmlns="http://www.w3.org/2000/svg" xmlns:xlink="http://www.w3.org/1999/xlink" width="512" zoomAndPan="magnify" viewBox="0 0 384 101.999999" height="136" preserveAspectRatio="xMidYMid meet" version="1.0"><defs><g/></defs><g fill="#ffffff" fill-opacity="1"><g transform="translate(3.442348, 83.705476)"><g><path d="M 3.703125 -52.1875 C 3.703125 -55.101562 4.054688 -57.375 4.765625 -59 C 5.484375 -60.625 6.6875 -61.988281 8.375 -63.09375 C 9.019531 -63.539062 9.796875 -63.894531 10.703125 -64.15625 C 11.617188 -64.414062 12.5625 -64.613281 13.53125 -64.75 C 13.988281 -64.8125 14.6875 -64.859375 15.625 -64.890625 C 16.5625 -64.921875 17.75 -64.9375 19.1875 -64.9375 L 32.03125 -64.9375 C 33.78125 -64.9375 35.207031 -64.921875 36.3125 -64.890625 C 37.414062 -64.859375 38.359375 -64.773438 39.140625 -64.640625 C 39.921875 -64.515625 40.585938 -64.351562 41.140625 -64.15625 C 41.691406 -63.96875 42.257812 -63.675781 42.84375 -63.28125 C 44.269531 -62.4375 45.382812 -61.285156 46.1875 -59.828125 C 47 -58.367188 47.40625 -56.796875 47.40625 -55.109375 C 47.40625 -53.609375 47.097656 -52.144531 46.484375 -50.71875 C 45.867188 -49.289062 45.039062 -48.125 44 -47.21875 C 42.96875 -46.3125 41.847656 -45.691406 40.640625 -45.359375 C 39.441406 -45.035156 37.867188 -44.875 35.921875 -44.875 L 25.125 -44.875 L 25.125 -40.40625 L 31.734375 -40.40625 C 33.617188 -40.40625 35.03125 -40.320312 35.96875 -40.15625 C 36.914062 -40 37.8125 -39.660156 38.65625 -39.140625 C 39.757812 -38.421875 40.632812 -37.507812 41.28125 -36.40625 C 41.925781 -35.300781 42.25 -34.070312 42.25 -32.71875 C 42.25 -30.1875 41.453125 -28.238281 39.859375 -26.875 C 38.273438 -25.507812 35.925781 -24.828125 32.8125 -24.828125 L 25.125 -24.828125 L 25.125 -14.609375 C 25.125 -13.046875 25.101562 -11.742188 25.0625 -10.703125 C 25.03125 -9.671875 24.945312 -8.796875 24.8125 -8.078125 C 24.6875 -7.367188 24.507812 -6.753906 24.28125 -6.234375 C 24.0625 -5.710938 23.753906 -5.128906 23.359375 -4.484375 C 22.453125 -2.984375 21.203125 -1.78125 19.609375 -0.875 C 18.023438 0.03125 16.289062 0.484375 14.40625 0.484375 C 12.394531 0.484375 10.546875 -0.015625 8.859375 -1.015625 C 7.171875 -2.023438 5.90625 -3.375 5.0625 -5.0625 C 4.738281 -5.644531 4.492188 -6.195312 4.328125 -6.71875 C 4.171875 -7.238281 4.039062 -7.835938 3.9375 -8.515625 C 3.84375 -9.203125 3.78125 -10.03125 3.75 -11 C 3.71875 -11.976562 3.703125 -13.210938 3.703125 -14.703125 Z M 3.703125 -52.1875 "/></g></g></g><g fill="#ffffff" fill-opacity="1"><g transform="translate(52.016673, 83.705476)"><g><path d="M 19.765625 0 C 17.296875 0 15.539062 -0.0625 14.5 -0.1875 C 13.46875 -0.320312 12.492188 -0.550781 11.578125 -0.875 C 8.140625 -2.300781 6.097656 -4.898438 5.453125 -8.671875 C 5.390625 -8.992188 5.320312 -9.300781 5.25 -9.59375 C 5.1875 -9.882812 5.140625 -10.253906 5.109375 -10.703125 C 5.078125 -11.160156 5.0625 -11.726562 5.0625 -12.40625 C 5.0625 -13.09375 5.0625 -13.988281 5.0625 -15.09375 L 5.0625 -50.328125 C 5.0625 -51.691406 5.078125 -52.796875 5.109375 -53.640625 C 5.140625 -54.484375 5.1875 -55.179688 5.25 -55.734375 C 5.320312 -56.285156 5.421875 -56.753906 5.546875 -57.140625 C 5.679688 -57.535156 5.84375 -57.992188 6.03125 -58.515625 C 6.488281 -59.742188 7.1875 -60.8125 8.125 -61.71875 C 9.070312 -62.632812 10.097656 -63.351562 11.203125 -63.875 C 11.785156 -64.125 12.300781 -64.3125 12.75 -64.4375 C 13.207031 -64.570312 13.742188 -64.671875 14.359375 -64.734375 C 14.972656 -64.804688 15.75 -64.859375 16.6875 -64.890625 C 17.632812 -64.921875 18.890625 -64.9375 20.453125 -64.9375 L 33.296875 -64.9375 C 34.859375 -64.9375 36.09375 -64.9375 37 -64.9375 C 37.90625 -64.9375 38.617188 -64.90625 39.140625 -64.84375 C 39.660156 -64.78125 40.082031 -64.710938 40.40625 -64.640625 C 40.726562 -64.578125 41.082031 -64.515625 41.46875 -64.453125 C 43.738281 -63.867188 45.539062 -62.734375 46.875 -61.046875 C 48.207031 -59.359375 48.875 -57.378906 48.875 -55.109375 C 48.875 -53.546875 48.566406 -52.066406 47.953125 -50.671875 C 47.335938 -49.273438 46.476562 -48.125 45.375 -47.21875 C 44.394531 -46.375 43.285156 -45.769531 42.046875 -45.40625 C 40.816406 -45.050781 39.195312 -44.875 37.1875 -44.875 L 26.484375 -44.875 L 26.484375 -40.40625 L 34.953125 -40.40625 C 37.609375 -40.40625 39.710938 -39.691406 41.265625 -38.265625 C 42.828125 -36.835938 43.609375 -34.988281 43.609375 -32.71875 C 43.609375 -30.1875 42.671875 -28.140625 40.796875 -26.578125 C 39.953125 -25.929688 39.054688 -25.492188 38.109375 -25.265625 C 37.171875 -25.035156 35.859375 -24.921875 34.171875 -24.921875 L 26.484375 -24.921875 L 26.484375 -20.0625 L 36.3125 -20.0625 C 38.644531 -20.0625 40.441406 -19.878906 41.703125 -19.515625 C 42.972656 -19.160156 44.160156 -18.53125 45.265625 -17.625 C 47.609375 -15.613281 48.78125 -13.082031 48.78125 -10.03125 C 48.78125 -8.53125 48.46875 -7.082031 47.84375 -5.6875 C 47.226562 -4.300781 46.367188 -3.148438 45.265625 -2.234375 C 44.753906 -1.785156 44.222656 -1.414062 43.671875 -1.125 C 43.117188 -0.832031 42.515625 -0.601562 41.859375 -0.4375 C 41.210938 -0.269531 40.453125 -0.15625 39.578125 -0.09375 C 38.703125 -0.03125 37.644531 0 36.40625 0 Z M 19.765625 0 "/></g></g></g><g fill="#ffffff" fill-opacity="1"><g transform="translate(103.219267, 83.705476)"><g><path d="M 18.984375 0 C 16.453125 0 14.550781 -0.113281 13.28125 -0.34375 C 12.019531 -0.570312 10.90625 -1.039062 9.9375 -1.75 C 7.59375 -3.238281 6.097656 -5.1875 5.453125 -7.59375 C 5.316406 -7.976562 5.234375 -8.347656 5.203125 -8.703125 C 5.171875 -9.066406 5.140625 -9.488281 5.109375 -9.96875 C 5.078125 -10.457031 5.0625 -11.078125 5.0625 -11.828125 C 5.0625 -12.578125 5.0625 -13.503906 5.0625 -14.609375 L 5.0625 -50.328125 C 5.0625 -51.691406 5.0625 -52.78125 5.0625 -53.59375 C 5.0625 -54.40625 5.078125 -55.070312 5.109375 -55.59375 C 5.140625 -56.113281 5.1875 -56.519531 5.25 -56.8125 C 5.320312 -57.101562 5.421875 -57.441406 5.546875 -57.828125 C 7.109375 -62.566406 11.035156 -64.9375 17.328125 -64.9375 L 30.46875 -64.9375 C 35.34375 -64.9375 39.691406 -64.269531 43.515625 -62.9375 C 47.347656 -61.613281 50.851562 -59.519531 54.03125 -56.65625 C 57.46875 -53.613281 60.113281 -50 61.96875 -45.8125 C 63.820312 -41.625 64.75 -37.191406 64.75 -32.515625 C 64.75 -28.035156 63.835938 -23.71875 62.015625 -19.5625 C 60.203125 -15.414062 57.640625 -11.785156 54.328125 -8.671875 C 52.253906 -6.722656 49.898438 -5.066406 47.265625 -3.703125 C 44.640625 -2.335938 41.898438 -1.363281 39.046875 -0.78125 C 36.253906 -0.257812 32.585938 0 28.046875 0 Z M 26.484375 -19.953125 C 28.296875 -19.953125 29.816406 -19.984375 31.046875 -20.046875 C 32.285156 -20.117188 33.328125 -20.234375 34.171875 -20.390625 C 35.015625 -20.554688 35.726562 -20.769531 36.3125 -21.03125 C 36.894531 -21.289062 37.515625 -21.644531 38.171875 -22.09375 C 39.785156 -23.269531 41.0625 -24.78125 42 -26.625 C 42.945312 -28.476562 43.421875 -30.410156 43.421875 -32.421875 C 43.421875 -34.816406 42.785156 -37.019531 41.515625 -39.03125 C 40.253906 -41.050781 38.585938 -42.578125 36.515625 -43.609375 C 35.472656 -44.128906 34.332031 -44.488281 33.09375 -44.6875 C 31.863281 -44.882812 30.242188 -44.984375 28.234375 -44.984375 L 26.484375 -44.984375 Z M 26.484375 -19.953125 "/></g></g></g><g fill="#ffffff" fill-opacity="1"><g transform="translate(171.262268, 83.705476)"><g><path d="M 5.0625 -52.09375 C 5.0625 -53.445312 5.09375 -54.609375 5.15625 -55.578125 C 5.21875 -56.554688 5.347656 -57.398438 5.546875 -58.109375 C 5.742188 -58.828125 6.019531 -59.492188 6.375 -60.109375 C 6.726562 -60.734375 7.195312 -61.335938 7.78125 -61.921875 C 9.800781 -64.253906 12.429688 -65.421875 15.671875 -65.421875 C 18.921875 -65.421875 21.582031 -64.285156 23.65625 -62.015625 C 24.757812 -60.785156 25.503906 -59.488281 25.890625 -58.125 C 26.285156 -56.757812 26.484375 -54.75 26.484375 -52.09375 L 26.484375 -11.875 C 26.484375 -9.800781 26.269531 -8.097656 25.84375 -6.765625 C 25.425781 -5.429688 24.726562 -4.210938 23.75 -3.109375 C 22.71875 -2.003906 21.488281 -1.128906 20.0625 -0.484375 C 18.632812 0.160156 17.203125 0.484375 15.765625 0.484375 C 14.273438 0.484375 12.800781 0.175781 11.34375 -0.4375 C 9.882812 -1.050781 8.695312 -1.878906 7.78125 -2.921875 C 6.75 -4.023438 6.035156 -5.222656 5.640625 -6.515625 C 5.253906 -7.816406 5.0625 -9.601562 5.0625 -11.875 Z M 5.0625 -52.09375 "/></g></g></g><g fill="#ffffff" fill-opacity="1"><g transform="translate(202.704168, 83.705476)"><g><path d="M 26.484375 -19.1875 L 26.484375 -10.3125 C 26.484375 -8.757812 26.207031 -7.332031 25.65625 -6.03125 C 25.101562 -4.738281 24.351562 -3.601562 23.40625 -2.625 C 22.46875 -1.65625 21.363281 -0.894531 20.09375 -0.34375 C 18.832031 0.207031 17.457031 0.484375 15.96875 0.484375 C 14.34375 0.484375 12.78125 0.144531 11.28125 -0.53125 C 9.789062 -1.21875 8.5625 -2.175781 7.59375 -3.40625 C 5.90625 -5.550781 5.0625 -8.601562 5.0625 -12.5625 L 5.0625 -52.578125 C 5.0625 -54.910156 5.320312 -56.804688 5.84375 -58.265625 C 6.363281 -59.722656 7.269531 -61.003906 8.5625 -62.109375 C 9.800781 -63.210938 11.082031 -63.957031 12.40625 -64.34375 C 13.738281 -64.738281 15.703125 -64.9375 18.296875 -64.9375 L 27.265625 -64.9375 C 29.921875 -64.9375 31.960938 -64.851562 33.390625 -64.6875 C 34.816406 -64.53125 36.242188 -64.289062 37.671875 -63.96875 C 40.203125 -63.25 42.503906 -62.175781 44.578125 -60.75 C 46.660156 -59.320312 48.445312 -57.617188 49.9375 -55.640625 C 51.4375 -53.660156 52.609375 -51.46875 53.453125 -49.0625 C 54.296875 -46.664062 54.71875 -44.171875 54.71875 -41.578125 C 54.71875 -38.460938 54.179688 -35.617188 53.109375 -33.046875 C 52.035156 -30.484375 50.265625 -27.804688 47.796875 -25.015625 L 52.859375 -16.9375 C 53.578125 -15.832031 54.097656 -14.679688 54.421875 -13.484375 C 54.742188 -12.285156 54.90625 -11.132812 54.90625 -10.03125 C 54.90625 -8.53125 54.628906 -7.144531 54.078125 -5.875 C 53.523438 -4.613281 52.757812 -3.515625 51.78125 -2.578125 C 50.8125 -1.640625 49.675781 -0.894531 48.375 -0.34375 C 47.082031 0.207031 45.691406 0.484375 44.203125 0.484375 C 40.304688 0.484375 37.351562 -1.171875 35.34375 -4.484375 Z M 27.359375 -38.0625 L 28.8125 -38.0625 C 32.0625 -37.9375 33.6875 -39.070312 33.6875 -41.46875 C 33.6875 -43.9375 32.03125 -45.109375 28.71875 -44.984375 C 28.457031 -44.984375 28.148438 -44.984375 27.796875 -44.984375 C 27.441406 -44.984375 27.003906 -45.015625 26.484375 -45.078125 L 26.484375 -38.0625 Z M 27.359375 -38.0625 "/></g></g></g><g fill="#ffffff" fill-opacity="1"><g transform="translate(261.304863, 83.705476)"><g><path d="M 19.765625 0 C 17.296875 0 15.539062 -0.0625 14.5 -0.1875 C 13.46875 -0.320312 12.492188 -0.550781 11.578125 -0.875 C 8.140625 -2.300781 6.097656 -4.898438 5.453125 -8.671875 C 5.390625 -8.992188 5.320312 -9.300781 5.25 -9.59375 C 5.1875 -9.882812 5.140625 -10.253906 5.109375 -10.703125 C 5.078125 -11.160156 5.0625 -11.726562 5.0625 -12.40625 C 5.0625 -13.09375 5.0625 -13.988281 5.0625 -15.09375 L 5.0625 -50.328125 C 5.0625 -51.691406 5.078125 -52.796875 5.109375 -53.640625 C 5.140625 -54.484375 5.1875 -55.179688 5.25 -55.734375 C 5.320312 -56.285156 5.421875 -56.753906 5.546875 -57.140625 C 5.679688 -57.535156 5.84375 -57.992188 6.03125 -58.515625 C 6.488281 -59.742188 7.1875 -60.8125 8.125 -61.71875 C 9.070312 -62.632812 10.097656 -63.351562 11.203125 -63.875 C 11.785156 -64.125 12.300781 -64.3125 12.75 -64.4375 C 13.207031 -64.570312 13.742188 -64.671875 14.359375 -64.734375 C 14.972656 -64.804688 15.75 -64.859375 16.6875 -64.890625 C 17.632812 -64.921875 18.890625 -64.9375 20.453125 -64.9375 L 33.296875 -64.9375 C 34.859375 -64.9375 36.09375 -64.9375 37 -64.9375 C 37.90625 -64.9375 38.617188 -64.90625 39.140625 -64.84375 C 39.660156 -64.78125 40.082031 -64.710938 40.40625 -64.640625 C 40.726562 -64.578125 41.082031 -64.515625 41.46875 -64.453125 C 43.738281 -63.867188 45.539062 -62.734375 46.875 -61.046875 C 48.207031 -59.359375 48.875 -57.378906 48.875 -55.109375 C 48.875 -53.546875 48.566406 -52.066406 47.953125 -50.671875 C 47.335938 -49.273438 46.476562 -48.125 45.375 -47.21875 C 44.394531 -46.375 43.285156 -45.769531 42.046875 -45.40625 C 40.816406 -45.050781 39.195312 -44.875 37.1875 -44.875 L 26.484375 -44.875 L 26.484375 -40.40625 L 34.953125 -40.40625 C 37.609375 -40.40625 39.710938 -39.691406 41.265625 -38.265625 C 42.828125 -36.835938 43.609375 -34.988281 43.609375 -32.71875 C 43.609375 -30.1875 42.671875 -28.140625 40.796875 -26.578125 C 39.953125 -25.929688 39.054688 -25.492188 38.109375 -25.265625 C 37.171875 -25.035156 35.859375 -24.921875 34.171875 -24.921875 L 26.484375 -24.921875 L 26.484375 -20.0625 L 36.3125 -20.0625 C 38.644531 -20.0625 40.441406 -19.878906 41.703125 -19.515625 C 42.972656 -19.160156 44.160156 -18.53125 45.265625 -17.625 C 47.609375 -15.613281 48.78125 -13.082031 48.78125 -10.03125 C 48.78125 -8.53125 48.46875 -7.082031 47.84375 -5.6875 C 47.226562 -4.300781 46.367188 -3.148438 45.265625 -2.234375 C 44.753906 -1.785156 44.222656 -1.414062 43.671875 -1.125 C 43.117188 -0.832031 42.515625 -0.601562 41.859375 -0.4375 C 41.210938 -0.269531 40.453125 -0.15625 39.578125 -0.09375 C 38.703125 -0.03125 37.644531 0 36.40625 0 Z M 19.765625 0 "/></g></g></g><g fill="#ffffff" fill-opacity="1"><g transform="translate(312.507457, 83.705476)"><g><path d="M 18.984375 0 C 16.453125 0 14.550781 -0.113281 13.28125 -0.34375 C 12.019531 -0.570312 10.90625 -1.039062 9.9375 -1.75 C 7.59375 -3.238281 6.097656 -5.1875 5.453125 -7.59375 C 5.316406 -7.976562 5.234375 -8.347656 5.203125 -8.703125 C 5.171875 -9.066406 5.140625 -9.488281 5.109375 -9.96875 C 5.078125 -10.457031 5.0625 -11.078125 5.0625 -11.828125 C 5.0625 -12.578125 5.0625 -13.503906 5.0625 -14.609375 L 5.0625 -50.328125 C 5.0625 -51.691406 5.0625 -52.78125 5.0625 -53.59375 C 5.0625 -54.40625 5.078125 -55.070312 5.109375 -55.59375 C 5.140625 -56.113281 5.1875 -56.519531 5.25 -56.8125 C 5.320312 -57.101562 5.421875 -57.441406 5.546875 -57.828125 C 7.109375 -62.566406 11.035156 -64.9375 17.328125 -64.9375 L 30.46875 -64.9375 C 35.34375 -64.9375 39.691406 -64.269531 43.515625 -62.9375 C 47.347656 -61.613281 50.851562 -59.519531 54.03125 -56.65625 C 57.46875 -53.613281 60.113281 -50 61.96875 -45.8125 C 63.820312 -41.625 64.75 -37.191406 64.75 -32.515625 C 64.75 -28.035156 63.835938 -23.71875 62.015625 -19.5625 C 60.203125 -15.414062 57.640625 -11.785156 54.328125 -8.671875 C 52.253906 -6.722656 49.898438 -5.066406 47.265625 -3.703125 C 44.640625 -2.335938 41.898438 -1.363281 39.046875 -0.78125 C 36.253906 -0.257812 32.585938 0 28.046875 0 Z M 26.484375 -19.953125 C 28.296875 -19.953125 29.816406 -19.984375 31.046875 -20.046875 C 32.285156 -20.117188 33.328125 -20.234375 34.171875 -20.390625 C 35.015625 -20.554688 35.726562 -20.769531 36.3125 -21.03125 C 36.894531 -21.289062 37.515625 -21.644531 38.171875 -22.09375 C 39.785156 -23.269531 41.0625 -24.78125 42 -26.625 C 42.945312 -28.476562 43.421875 -30.410156 43.421875 -32.421875 C 43.421875 -34.816406 42.785156 -37.019531 41.515625 -39.03125 C 40.253906 -41.050781 38.585938 -42.578125 36.515625 -43.609375 C 35.472656 -44.128906 34.332031 -44.488281 33.09375 -44.6875 C 31.863281 -44.882812 30.242188 -44.984375 28.234375 -44.984375 L 26.484375 -44.984375 Z M 26.484375 -19.953125 "/></g></g></g></svg>