<svg xmlns="http://www.w3.org/2000/svg" xmlns:xlink="http://www.w3.org/1999/xlink" width="614" zoomAndPan="magnify" viewBox="0 0 460.5 153.750002" height="205" preserveAspectRatio="xMidYMid meet" version="1.0"><defs><g/></defs><g fill="#6364ff" fill-opacity="1"><g transform="translate(6.497611, 115.29937)"><g><path d="M 4.390625 -61.84375 C 4.390625 -65.3125 4.8125 -68.003906 5.65625 -69.921875 C 6.5 -71.847656 7.921875 -73.460938 9.921875 -74.765625 C 10.691406 -75.304688 11.613281 -75.726562 12.6875 -76.03125 C 13.769531 -76.34375 14.890625 -76.578125 16.046875 -76.734375 C 16.578125 -76.804688 17.398438 -76.863281 18.515625 -76.90625 C 19.628906 -76.945312 21.035156 -76.96875 22.734375 -76.96875 L 37.96875 -76.96875 C 40.039062 -76.96875 41.726562 -76.945312 43.03125 -76.90625 C 44.34375 -76.863281 45.457031 -76.765625 46.375 -76.609375 C 47.300781 -76.460938 48.09375 -76.273438 48.75 -76.046875 C 49.40625 -75.816406 50.078125 -75.46875 50.765625 -75 C 52.460938 -74 53.789062 -72.632812 54.75 -70.90625 C 55.707031 -69.175781 56.1875 -67.3125 56.1875 -65.3125 C 56.1875 -63.539062 55.820312 -61.804688 55.09375 -60.109375 C 54.363281 -58.421875 53.382812 -57.039062 52.15625 -55.96875 C 50.925781 -54.882812 49.597656 -54.148438 48.171875 -53.765625 C 46.753906 -53.378906 44.890625 -53.1875 42.578125 -53.1875 L 29.765625 -53.1875 L 29.765625 -47.890625 L 37.625 -47.890625 C 39.851562 -47.890625 41.523438 -47.789062 42.640625 -47.59375 C 43.753906 -47.40625 44.8125 -47.003906 45.8125 -46.390625 C 47.113281 -45.546875 48.148438 -44.46875 48.921875 -43.15625 C 49.691406 -41.84375 50.078125 -40.378906 50.078125 -38.765625 C 50.078125 -35.765625 49.132812 -33.457031 47.25 -31.84375 C 45.363281 -30.226562 42.578125 -29.421875 38.890625 -29.421875 L 29.765625 -29.421875 L 29.765625 -17.3125 C 29.765625 -15.46875 29.742188 -13.925781 29.703125 -12.6875 C 29.671875 -11.457031 29.578125 -10.421875 29.421875 -9.578125 C 29.265625 -8.734375 29.050781 -8.003906 28.78125 -7.390625 C 28.519531 -6.773438 28.15625 -6.082031 27.6875 -5.3125 C 26.613281 -3.539062 25.132812 -2.113281 23.25 -1.03125 C 21.363281 0.0390625 19.304688 0.578125 17.078125 0.578125 C 14.691406 0.578125 12.5 -0.015625 10.5 -1.203125 C 8.5 -2.398438 7 -4 6 -6 C 5.613281 -6.6875 5.320312 -7.335938 5.125 -7.953125 C 4.9375 -8.578125 4.785156 -9.289062 4.671875 -10.09375 C 4.554688 -10.90625 4.476562 -11.882812 4.4375 -13.03125 C 4.40625 -14.1875 4.390625 -15.648438 4.390625 -17.421875 Z M 4.390625 -61.84375 "/></g></g></g><g fill="#6364ff" fill-opacity="1"><g transform="translate(64.073572, 115.29937)"><g><path d="M 23.421875 0 C 20.503906 0 18.425781 -0.078125 17.1875 -0.234375 C 15.957031 -0.390625 14.804688 -0.65625 13.734375 -1.03125 C 9.648438 -2.726562 7.226562 -5.804688 6.46875 -10.265625 C 6.382812 -10.648438 6.300781 -11.015625 6.21875 -11.359375 C 6.144531 -11.710938 6.085938 -12.15625 6.046875 -12.6875 C 6.015625 -13.226562 6 -13.898438 6 -14.703125 C 6 -15.515625 6 -16.578125 6 -17.890625 L 6 -59.65625 C 6 -61.269531 6.015625 -62.578125 6.046875 -63.578125 C 6.085938 -64.578125 6.144531 -65.40625 6.21875 -66.0625 C 6.300781 -66.71875 6.421875 -67.273438 6.578125 -67.734375 C 6.734375 -68.191406 6.925781 -68.726562 7.15625 -69.34375 C 7.695312 -70.8125 8.523438 -72.082031 9.640625 -73.15625 C 10.753906 -74.226562 11.960938 -75.078125 13.265625 -75.703125 C 13.960938 -76.003906 14.578125 -76.234375 15.109375 -76.390625 C 15.648438 -76.546875 16.285156 -76.660156 17.015625 -76.734375 C 17.742188 -76.804688 18.664062 -76.863281 19.78125 -76.90625 C 20.90625 -76.945312 22.390625 -76.96875 24.234375 -76.96875 L 39.46875 -76.96875 C 41.3125 -76.96875 42.769531 -76.96875 43.84375 -76.96875 C 44.925781 -76.96875 45.773438 -76.925781 46.390625 -76.84375 C 47.003906 -76.769531 47.503906 -76.691406 47.890625 -76.609375 C 48.273438 -76.535156 48.695312 -76.460938 49.15625 -76.390625 C 51.84375 -75.691406 53.972656 -74.34375 55.546875 -72.34375 C 57.128906 -70.34375 57.921875 -68 57.921875 -65.3125 C 57.921875 -63.46875 57.554688 -61.71875 56.828125 -60.0625 C 56.097656 -58.40625 55.078125 -57.039062 53.765625 -55.96875 C 52.617188 -54.96875 51.3125 -54.253906 49.84375 -53.828125 C 48.382812 -53.398438 46.460938 -53.1875 44.078125 -53.1875 L 31.390625 -53.1875 L 31.390625 -47.890625 L 41.421875 -47.890625 C 44.578125 -47.890625 47.078125 -47.039062 48.921875 -45.34375 C 50.765625 -43.65625 51.6875 -41.460938 51.6875 -38.765625 C 51.6875 -35.765625 50.570312 -33.34375 48.34375 -31.5 C 47.34375 -30.726562 46.285156 -30.207031 45.171875 -29.9375 C 44.054688 -29.675781 42.5 -29.546875 40.5 -29.546875 L 31.390625 -29.546875 L 31.390625 -23.765625 L 43.046875 -23.765625 C 45.804688 -23.765625 47.9375 -23.550781 49.4375 -23.125 C 50.9375 -22.707031 52.34375 -21.960938 53.65625 -20.890625 C 56.425781 -18.503906 57.8125 -15.503906 57.8125 -11.890625 C 57.8125 -10.117188 57.445312 -8.40625 56.71875 -6.75 C 55.988281 -5.09375 54.96875 -3.726562 53.65625 -2.65625 C 53.039062 -2.113281 52.40625 -1.671875 51.75 -1.328125 C 51.09375 -0.984375 50.378906 -0.710938 49.609375 -0.515625 C 48.847656 -0.328125 47.945312 -0.191406 46.90625 -0.109375 C 45.863281 -0.0351562 44.613281 0 43.15625 0 Z M 23.421875 0 "/></g></g></g><g fill="#6364ff" fill-opacity="1"><g transform="translate(124.764871, 115.29937)"><g><path d="M 22.5 0 C 19.5 0 17.25 -0.132812 15.75 -0.40625 C 14.25 -0.675781 12.921875 -1.234375 11.765625 -2.078125 C 8.992188 -3.847656 7.226562 -6.15625 6.46875 -9 C 6.3125 -9.457031 6.210938 -9.898438 6.171875 -10.328125 C 6.128906 -10.753906 6.085938 -11.253906 6.046875 -11.828125 C 6.015625 -12.398438 6 -13.128906 6 -14.015625 C 6 -14.898438 6 -16 6 -17.3125 L 6 -59.65625 C 6 -61.269531 6 -62.554688 6 -63.515625 C 6 -64.484375 6.015625 -65.273438 6.046875 -65.890625 C 6.085938 -66.503906 6.144531 -66.984375 6.21875 -67.328125 C 6.300781 -67.671875 6.421875 -68.078125 6.578125 -68.546875 C 8.421875 -74.160156 13.078125 -76.96875 20.546875 -76.96875 L 36.125 -76.96875 C 41.882812 -76.96875 47.035156 -76.175781 51.578125 -74.59375 C 56.117188 -73.019531 60.273438 -70.539062 64.046875 -67.15625 C 68.117188 -63.539062 71.25 -59.25 73.4375 -54.28125 C 75.632812 -49.320312 76.734375 -44.078125 76.734375 -38.546875 C 76.734375 -33.234375 75.65625 -28.113281 73.5 -23.1875 C 71.34375 -18.269531 68.304688 -13.960938 64.390625 -10.265625 C 61.929688 -7.960938 59.140625 -6.003906 56.015625 -4.390625 C 52.898438 -2.773438 49.648438 -1.617188 46.265625 -0.921875 C 42.960938 -0.304688 38.617188 0 33.234375 0 Z M 31.390625 -23.65625 C 33.535156 -23.65625 35.335938 -23.691406 36.796875 -23.765625 C 38.265625 -23.847656 39.5 -23.984375 40.5 -24.171875 C 41.5 -24.367188 42.34375 -24.617188 43.03125 -24.921875 C 43.726562 -25.234375 44.460938 -25.65625 45.234375 -26.1875 C 47.160156 -27.570312 48.679688 -29.359375 49.796875 -31.546875 C 50.910156 -33.742188 51.46875 -36.035156 51.46875 -38.421875 C 51.46875 -41.265625 50.71875 -43.878906 49.21875 -46.265625 C 47.71875 -48.648438 45.734375 -50.457031 43.265625 -51.6875 C 42.035156 -52.3125 40.691406 -52.738281 39.234375 -52.96875 C 37.773438 -53.195312 35.851562 -53.3125 33.46875 -53.3125 L 31.390625 -53.3125 Z M 31.390625 -23.65625 "/></g></g></g><g fill="#6364ff" fill-opacity="1"><g transform="translate(205.417376, 115.29937)"><g><path d="M 6 -61.734375 C 6 -63.347656 6.035156 -64.734375 6.109375 -65.890625 C 6.191406 -67.046875 6.347656 -68.046875 6.578125 -68.890625 C 6.804688 -69.734375 7.128906 -70.519531 7.546875 -71.25 C 7.972656 -71.976562 8.535156 -72.691406 9.234375 -73.390625 C 11.617188 -76.160156 14.734375 -77.546875 18.578125 -77.546875 C 22.421875 -77.546875 25.578125 -76.195312 28.046875 -73.5 C 29.347656 -72.039062 30.226562 -70.503906 30.6875 -68.890625 C 31.15625 -67.273438 31.390625 -64.890625 31.390625 -61.734375 L 31.390625 -14.078125 C 31.390625 -11.617188 31.140625 -9.597656 30.640625 -8.015625 C 30.140625 -6.441406 29.3125 -5 28.15625 -3.6875 C 26.925781 -2.382812 25.460938 -1.347656 23.765625 -0.578125 C 22.078125 0.191406 20.382812 0.578125 18.6875 0.578125 C 16.925781 0.578125 15.175781 0.210938 13.4375 -0.515625 C 11.707031 -1.242188 10.304688 -2.226562 9.234375 -3.46875 C 8.003906 -4.769531 7.15625 -6.1875 6.6875 -7.71875 C 6.226562 -9.257812 6 -11.378906 6 -14.078125 Z M 6 -61.734375 "/></g></g></g><g fill="#6364ff" fill-opacity="1"><g transform="translate(242.685984, 115.29937)"><g><path d="M 31.390625 -22.734375 L 31.390625 -12.234375 C 31.390625 -10.390625 31.0625 -8.695312 30.40625 -7.15625 C 29.75 -5.613281 28.863281 -4.265625 27.75 -3.109375 C 26.632812 -1.960938 25.328125 -1.0625 23.828125 -0.40625 C 22.328125 0.25 20.691406 0.578125 18.921875 0.578125 C 17.003906 0.578125 15.160156 0.175781 13.390625 -0.625 C 11.617188 -1.4375 10.15625 -2.570312 9 -4.03125 C 7 -6.570312 6 -10.191406 6 -14.890625 L 6 -62.3125 C 6 -65.082031 6.304688 -67.332031 6.921875 -69.0625 C 7.535156 -70.789062 8.613281 -72.3125 10.15625 -73.625 C 11.613281 -74.925781 13.128906 -75.804688 14.703125 -76.265625 C 16.285156 -76.734375 18.613281 -76.96875 21.6875 -76.96875 L 32.3125 -76.96875 C 35.46875 -76.96875 37.890625 -76.867188 39.578125 -76.671875 C 41.273438 -76.484375 42.96875 -76.195312 44.65625 -75.8125 C 47.65625 -74.96875 50.382812 -73.695312 52.84375 -72 C 55.3125 -70.3125 57.425781 -68.289062 59.1875 -65.9375 C 60.957031 -63.59375 62.34375 -61 63.34375 -58.15625 C 64.34375 -55.3125 64.84375 -52.347656 64.84375 -49.265625 C 64.84375 -45.578125 64.207031 -42.210938 62.9375 -39.171875 C 61.675781 -36.128906 59.582031 -32.957031 56.65625 -29.65625 L 62.65625 -20.078125 C 63.5 -18.765625 64.113281 -17.394531 64.5 -15.96875 C 64.882812 -14.550781 65.078125 -13.191406 65.078125 -11.890625 C 65.078125 -10.117188 64.75 -8.484375 64.09375 -6.984375 C 63.445312 -5.484375 62.546875 -4.175781 61.390625 -3.0625 C 60.234375 -1.945312 58.882812 -1.0625 57.34375 -0.40625 C 55.8125 0.25 54.160156 0.578125 52.390625 0.578125 C 47.773438 0.578125 44.273438 -1.382812 41.890625 -5.3125 Z M 32.421875 -45.125 L 34.15625 -45.125 C 38 -44.96875 39.921875 -46.3125 39.921875 -49.15625 C 39.921875 -52.082031 37.960938 -53.46875 34.046875 -53.3125 C 33.734375 -53.3125 33.363281 -53.3125 32.9375 -53.3125 C 32.519531 -53.3125 32.003906 -53.347656 31.390625 -53.421875 L 31.390625 -45.125 Z M 32.421875 -45.125 "/></g></g></g><g fill="#6364ff" fill-opacity="1"><g transform="translate(312.146364, 115.29937)"><g><path d="M 23.421875 0 C 20.503906 0 18.425781 -0.078125 17.1875 -0.234375 C 15.957031 -0.390625 14.804688 -0.65625 13.734375 -1.03125 C 9.648438 -2.726562 7.226562 -5.804688 6.46875 -10.265625 C 6.382812 -10.648438 6.300781 -11.015625 6.21875 -11.359375 C 6.144531 -11.710938 6.085938 -12.15625 6.046875 -12.6875 C 6.015625 -13.226562 6 -13.898438 6 -14.703125 C 6 -15.515625 6 -16.578125 6 -17.890625 L 6 -59.65625 C 6 -61.269531 6.015625 -62.578125 6.046875 -63.578125 C 6.085938 -64.578125 6.144531 -65.40625 6.21875 -66.0625 C 6.300781 -66.71875 6.421875 -67.273438 6.578125 -67.734375 C 6.734375 -68.191406 6.925781 -68.726562 7.15625 -69.34375 C 7.695312 -70.8125 8.523438 -72.082031 9.640625 -73.15625 C 10.753906 -74.226562 11.960938 -75.078125 13.265625 -75.703125 C 13.960938 -76.003906 14.578125 -76.234375 15.109375 -76.390625 C 15.648438 -76.546875 16.285156 -76.660156 17.015625 -76.734375 C 17.742188 -76.804688 18.664062 -76.863281 19.78125 -76.90625 C 20.90625 -76.945312 22.390625 -76.96875 24.234375 -76.96875 L 39.46875 -76.96875 C 41.3125 -76.96875 42.769531 -76.96875 43.84375 -76.96875 C 44.925781 -76.96875 45.773438 -76.925781 46.390625 -76.84375 C 47.003906 -76.769531 47.503906 -76.691406 47.890625 -76.609375 C 48.273438 -76.535156 48.695312 -76.460938 49.15625 -76.390625 C 51.84375 -75.691406 53.972656 -74.34375 55.546875 -72.34375 C 57.128906 -70.34375 57.921875 -68 57.921875 -65.3125 C 57.921875 -63.46875 57.554688 -61.71875 56.828125 -60.0625 C 56.097656 -58.40625 55.078125 -57.039062 53.765625 -55.96875 C 52.617188 -54.96875 51.3125 -54.253906 49.84375 -53.828125 C 48.382812 -53.398438 46.460938 -53.1875 44.078125 -53.1875 L 31.390625 -53.1875 L 31.390625 -47.890625 L 41.421875 -47.890625 C 44.578125 -47.890625 47.078125 -47.039062 48.921875 -45.34375 C 50.765625 -43.65625 51.6875 -41.460938 51.6875 -38.765625 C 51.6875 -35.765625 50.570312 -33.34375 48.34375 -31.5 C 47.34375 -30.726562 46.285156 -30.207031 45.171875 -29.9375 C 44.054688 -29.675781 42.5 -29.546875 40.5 -29.546875 L 31.390625 -29.546875 L 31.390625 -23.765625 L 43.046875 -23.765625 C 45.804688 -23.765625 47.9375 -23.550781 49.4375 -23.125 C 50.9375 -22.707031 52.34375 -21.960938 53.65625 -20.890625 C 56.425781 -18.503906 57.8125 -15.503906 57.8125 -11.890625 C 57.8125 -10.117188 57.445312 -8.40625 56.71875 -6.75 C 55.988281 -5.09375 54.96875 -3.726562 53.65625 -2.65625 C 53.039062 -2.113281 52.40625 -1.671875 51.75 -1.328125 C 51.09375 -0.984375 50.378906 -0.710938 49.609375 -0.515625 C 48.847656 -0.328125 47.945312 -0.191406 46.90625 -0.109375 C 45.863281 -0.0351562 44.613281 0 43.15625 0 Z M 23.421875 0 "/></g></g></g><g fill="#6364ff" fill-opacity="1"><g transform="translate(372.837663, 115.29937)"><g><path d="M 22.5 0 C 19.5 0 17.25 -0.132812 15.75 -0.40625 C 14.25 -0.675781 12.921875 -1.234375 11.765625 -2.078125 C 8.992188 -3.847656 7.226562 -6.15625 6.46875 -9 C 6.3125 -9.457031 6.210938 -9.898438 6.171875 -10.328125 C 6.128906 -10.753906 6.085938 -11.253906 6.046875 -11.828125 C 6.015625 -12.398438 6 -13.128906 6 -14.015625 C 6 -14.898438 6 -16 6 -17.3125 L 6 -59.65625 C 6 -61.269531 6 -62.554688 6 -63.515625 C 6 -64.484375 6.015625 -65.273438 6.046875 -65.890625 C 6.085938 -66.503906 6.144531 -66.984375 6.21875 -67.328125 C 6.300781 -67.671875 6.421875 -68.078125 6.578125 -68.546875 C 8.421875 -74.160156 13.078125 -76.96875 20.546875 -76.96875 L 36.125 -76.96875 C 41.882812 -76.96875 47.035156 -76.175781 51.578125 -74.59375 C 56.117188 -73.019531 60.273438 -70.539062 64.046875 -67.15625 C 68.117188 -63.539062 71.25 -59.25 73.4375 -54.28125 C 75.632812 -49.320312 76.734375 -44.078125 76.734375 -38.546875 C 76.734375 -33.234375 75.65625 -28.113281 73.5 -23.1875 C 71.34375 -18.269531 68.304688 -13.960938 64.390625 -10.265625 C 61.929688 -7.960938 59.140625 -6.003906 56.015625 -4.390625 C 52.898438 -2.773438 49.648438 -1.617188 46.265625 -0.921875 C 42.960938 -0.304688 38.617188 0 33.234375 0 Z M 31.390625 -23.65625 C 33.535156 -23.65625 35.335938 -23.691406 36.796875 -23.765625 C 38.265625 -23.847656 39.5 -23.984375 40.5 -24.171875 C 41.5 -24.367188 42.34375 -24.617188 43.03125 -24.921875 C 43.726562 -25.234375 44.460938 -25.65625 45.234375 -26.1875 C 47.160156 -27.570312 48.679688 -29.359375 49.796875 -31.546875 C 50.910156 -33.742188 51.46875 -36.035156 51.46875 -38.421875 C 51.46875 -41.265625 50.71875 -43.878906 49.21875 -46.265625 C 47.71875 -48.648438 45.734375 -50.457031 43.265625 -51.6875 C 42.035156 -52.3125 40.691406 -52.738281 39.234375 -52.96875 C 37.773438 -53.195312 35.851562 -53.3125 33.46875 -53.3125 L 31.390625 -53.3125 Z M 31.390625 -23.65625 "/></g></g></g></svg>